<mxfile host="app.diagrams.net" agent="Mozilla/5.0 (Windows NT 10.0; Win64; x64) AppleWebKit/537.36 (KHTML, like Gecko) Chrome/135.0.0.0 Safari/537.36" version="26.2.14">
  <diagram name="第 1 页" id="bXbiH3EwShpQN_3dVzvC">
    <mxGraphModel dx="947" dy="542" grid="1" gridSize="10" guides="1" tooltips="1" connect="1" arrows="1" fold="1" page="1" pageScale="1" pageWidth="827" pageHeight="1169" math="0" shadow="0">
      <root>
        <mxCell id="0" />
        <mxCell id="1" parent="0" />
        <mxCell id="0HjXq0CEjoln_zBARy2v-11" style="edgeStyle=none;rounded=0;orthogonalLoop=1;jettySize=auto;html=1;exitX=1;exitY=0.3333333333333333;exitDx=0;exitDy=0;exitPerimeter=0;entryX=0;entryY=0.5;entryDx=0;entryDy=0;fontFamily=宋体;fontSize=14;" parent="1" source="rSCCLJno3e1j1hXcmhqp-1" target="rSCCLJno3e1j1hXcmhqp-4" edge="1">
          <mxGeometry relative="1" as="geometry" />
        </mxCell>
        <mxCell id="0HjXq0CEjoln_zBARy2v-12" style="edgeStyle=none;rounded=0;orthogonalLoop=1;jettySize=auto;html=1;exitX=1;exitY=0.3333333333333333;exitDx=0;exitDy=0;exitPerimeter=0;entryX=0;entryY=0.5;entryDx=0;entryDy=0;fontFamily=宋体;fontSize=14;" parent="1" source="rSCCLJno3e1j1hXcmhqp-1" target="rSCCLJno3e1j1hXcmhqp-7" edge="1">
          <mxGeometry relative="1" as="geometry" />
        </mxCell>
        <mxCell id="rSCCLJno3e1j1hXcmhqp-1" value="用户" style="shape=umlActor;verticalLabelPosition=bottom;verticalAlign=top;html=1;outlineConnect=0;fontFamily=宋体;fontSize=14;" parent="1" vertex="1">
          <mxGeometry x="109" y="176" width="30" height="60" as="geometry" />
        </mxCell>
        <mxCell id="rSCCLJno3e1j1hXcmhqp-4" value="查看待进行订单" style="ellipse;whiteSpace=wrap;html=1;fontFamily=宋体;fontSize=14;" parent="1" vertex="1">
          <mxGeometry x="177" y="156" width="110" height="36.67" as="geometry" />
        </mxCell>
        <mxCell id="2t82qzao_Dj3ipLsuFm_-2" style="edgeStyle=orthogonalEdgeStyle;rounded=0;orthogonalLoop=1;jettySize=auto;html=1;exitX=1;exitY=0.5;exitDx=0;exitDy=0;entryX=0;entryY=0.5;entryDx=0;entryDy=0;fontFamily=宋体;fontSize=14;dashed=1;endArrow=none;startFill=1;startArrow=classicThin;" parent="1" source="rSCCLJno3e1j1hXcmhqp-7" target="2t82qzao_Dj3ipLsuFm_-1" edge="1">
          <mxGeometry relative="1" as="geometry" />
        </mxCell>
        <mxCell id="rSCCLJno3e1j1hXcmhqp-7" value="查看所有订单" style="ellipse;whiteSpace=wrap;html=1;fontFamily=宋体;fontSize=14;" parent="1" vertex="1">
          <mxGeometry x="177" y="203" width="110" height="36.67" as="geometry" />
        </mxCell>
        <mxCell id="2t82qzao_Dj3ipLsuFm_-1" value="查看订单详情" style="ellipse;whiteSpace=wrap;html=1;fontFamily=宋体;fontSize=14;" parent="1" vertex="1">
          <mxGeometry x="337" y="204" width="110" height="36.67" as="geometry" />
        </mxCell>
        <mxCell id="2t82qzao_Dj3ipLsuFm_-4" value="自动完成订单" style="ellipse;whiteSpace=wrap;html=1;fontFamily=宋体;fontSize=14;" parent="1" vertex="1">
          <mxGeometry x="461" y="205" width="110" height="36.67" as="geometry" />
        </mxCell>
        <mxCell id="2t82qzao_Dj3ipLsuFm_-6" value="自动取消订单" style="ellipse;whiteSpace=wrap;html=1;fontFamily=宋体;fontSize=14;" parent="1" vertex="1">
          <mxGeometry x="458" y="246" width="110" height="36.67" as="geometry" />
        </mxCell>
        <mxCell id="foDRxJdmkzeu42MKYY4D-1" value="&amp;lt;&amp;lt;extend&amp;gt;&amp;gt;" style="text;html=1;align=center;verticalAlign=middle;whiteSpace=wrap;rounded=0;spacing=0;fontSize=9;fontFamily=Times New Roman;" vertex="1" parent="1">
          <mxGeometry x="288" y="206" width="54" height="12" as="geometry" />
        </mxCell>
        <mxCell id="foDRxJdmkzeu42MKYY4D-10" style="edgeStyle=orthogonalEdgeStyle;rounded=0;orthogonalLoop=1;jettySize=auto;html=1;exitX=0;exitY=0.5;exitDx=0;exitDy=0;entryX=1;entryY=0.5;entryDx=0;entryDy=0;fontFamily=Helvetica;fontSize=11;fontColor=default;labelBackgroundColor=default;resizable=0;dashed=1;" edge="1" parent="1" source="foDRxJdmkzeu42MKYY4D-9" target="rSCCLJno3e1j1hXcmhqp-4">
          <mxGeometry relative="1" as="geometry" />
        </mxCell>
        <mxCell id="foDRxJdmkzeu42MKYY4D-9" value="开始订单" style="ellipse;whiteSpace=wrap;html=1;fontFamily=宋体;fontSize=14;" vertex="1" parent="1">
          <mxGeometry x="332" y="155.99999999999997" width="94.5" height="36.67" as="geometry" />
        </mxCell>
        <mxCell id="foDRxJdmkzeu42MKYY4D-13" style="edgeStyle=orthogonalEdgeStyle;rounded=0;orthogonalLoop=1;jettySize=auto;html=1;exitX=0;exitY=0.5;exitDx=0;exitDy=0;entryX=1;entryY=0.5;entryDx=0;entryDy=0;fontFamily=Helvetica;fontSize=11;fontColor=default;labelBackgroundColor=default;resizable=0;dashed=1;" edge="1" parent="1" source="foDRxJdmkzeu42MKYY4D-11" target="foDRxJdmkzeu42MKYY4D-9">
          <mxGeometry relative="1" as="geometry" />
        </mxCell>
        <mxCell id="foDRxJdmkzeu42MKYY4D-11" value="提前结束订单" style="ellipse;whiteSpace=wrap;html=1;fontFamily=宋体;fontSize=14;" vertex="1" parent="1">
          <mxGeometry x="462" y="156" width="110" height="36.67" as="geometry" />
        </mxCell>
        <mxCell id="foDRxJdmkzeu42MKYY4D-12" value="&amp;lt;&amp;lt;extend&amp;gt;&amp;gt;" style="text;html=1;align=center;verticalAlign=middle;whiteSpace=wrap;rounded=0;spacing=0;fontSize=9;fontFamily=Times New Roman;" vertex="1" parent="1">
          <mxGeometry x="289" y="160" width="54" height="12" as="geometry" />
        </mxCell>
        <mxCell id="foDRxJdmkzeu42MKYY4D-14" value="&amp;lt;&amp;lt;extend&amp;gt;&amp;gt;" style="text;html=1;align=center;verticalAlign=middle;whiteSpace=wrap;rounded=0;spacing=0;fontSize=9;fontFamily=Times New Roman;" vertex="1" parent="1">
          <mxGeometry x="423" y="158" width="54" height="12" as="geometry" />
        </mxCell>
        <mxCell id="foDRxJdmkzeu42MKYY4D-17" style="rounded=0;orthogonalLoop=1;jettySize=auto;html=1;exitX=0;exitY=0.3333333333333333;exitDx=0;exitDy=0;exitPerimeter=0;entryX=1;entryY=0.5;entryDx=0;entryDy=0;fontFamily=Helvetica;fontSize=11;fontColor=default;labelBackgroundColor=default;resizable=0;" edge="1" parent="1" source="foDRxJdmkzeu42MKYY4D-15" target="2t82qzao_Dj3ipLsuFm_-4">
          <mxGeometry relative="1" as="geometry" />
        </mxCell>
        <mxCell id="foDRxJdmkzeu42MKYY4D-15" value="系统" style="shape=umlActor;verticalLabelPosition=bottom;verticalAlign=top;html=1;outlineConnect=0;align=center;fontFamily=宋体;fontSize=12;fontColor=default;labelBackgroundColor=default;resizable=0;fillColor=none;gradientColor=none;" vertex="1" parent="1">
          <mxGeometry x="618" y="219" width="30" height="60" as="geometry" />
        </mxCell>
        <mxCell id="foDRxJdmkzeu42MKYY4D-18" style="rounded=0;orthogonalLoop=1;jettySize=auto;html=1;exitX=0;exitY=0.3333333333333333;exitDx=0;exitDy=0;exitPerimeter=0;entryX=0.972;entryY=0.355;entryDx=0;entryDy=0;entryPerimeter=0;fontFamily=Helvetica;fontSize=11;fontColor=default;labelBackgroundColor=default;resizable=0;" edge="1" parent="1" source="foDRxJdmkzeu42MKYY4D-15">
          <mxGeometry relative="1" as="geometry">
            <mxPoint x="567.92" y="268.01784999999995" as="targetPoint" />
          </mxGeometry>
        </mxCell>
      </root>
    </mxGraphModel>
  </diagram>
</mxfile>
